<?xml version="1.0" encoding="UTF-8"?>
<svg width="206px" height="39px" viewBox="0 0 206 39" version="1.1" xmlns="http://www.w3.org/2000/svg" xmlns:xlink="http://www.w3.org/1999/xlink">
    <!-- Generator: Sketch 52 (66869) - http://www.bohemiancoding.com/sketch -->
    <title>Elements / logo / white</title>
    <desc>Created with Sketch.</desc>
    <g id="Welcome" stroke="none" stroke-width="1" fill="none" fill-rule="evenodd">
        <g id="Homepage" transform="translate(-46.000000, -40.000000)">
            <g id="menu-fullscreen">
                <g id="Elements-/-logo-/-white" transform="translate(46.000000, 40.000000)">
                    <g id="logo-white">
                        <path d="M36.3647488,27.72016 L36.3647488,4.64176 C36.3647488,3.29456 37.4538341,2.20496 38.7968264,2.20496 C40.1398186,2.20496 41.2289039,3.29456 41.2289039,4.64176 L41.2289039,10.26736 C42.3866558,9.81936 43.7344388,9.59376 45.2738496,9.59376 C48.0891829,9.59376 50.2929039,10.32976 51.8770279,11.80336 C53.4643457,13.27696 54.2580047,15.33936 54.2580047,17.99376 L54.2580047,27.72016 C54.2580047,29.06576 53.1689194,30.15536 51.827524,30.15536 C50.4829349,30.15536 49.3938496,29.06576 49.3938496,27.72016 L49.3938496,17.57776 C49.3938496,17.03536 49.3491364,16.58416 49.2549194,16.22096 C49.165493,15.85616 48.9658806,15.47856 48.6544853,15.08176 C48.3462837,14.68656 47.8416636,14.38736 47.137431,14.19056 C46.4347953,13.99216 45.5421287,13.89296 44.4658186,13.89296 C43.1994775,13.89296 42.1231674,14.08976 41.2289039,14.48656 L41.2289039,27.72016 C41.2289039,29.06576 40.1398186,30.15536 38.7968264,30.15536 C37.4538341,30.15536 36.3647488,29.06576 36.3647488,27.72016" fill="#FFFFFF"></path>
                        <path d="M61.6843845,18.192 L69.8301674,18.192 C69.7008186,16.8032 69.2872217,15.6304 68.5957643,14.6736 C67.904307,13.7168 66.9509581,13.2384 65.7373147,13.2384 C64.5252682,13.2384 63.5799039,13.6288 62.9012217,14.408 C62.2209426,15.1872 61.8169271,16.4496 61.6843845,18.192 M56.8202295,19.9344 C56.8202295,16.6864 57.5420279,14.0912 58.9872217,12.1504 C60.4292217,10.208 62.7191752,9.2368 65.8554853,9.2368 C68.8209271,9.2368 71.0661674,10.1808 72.5896093,12.0704 C74.1114543,13.9584 74.8715783,16.2832 74.8715783,19.0432 C74.8715783,20.1792 74.8460279,21.0176 74.7917333,21.5584 L61.6843845,21.5584 C61.8169271,23.3152 62.3391132,24.4912 63.2557333,25.0864 C64.1723535,25.68 65.3620434,25.976 66.8248031,25.976 C67.7669736,25.976 68.7538574,25.9248 69.6768651,25.7184 C70.5056558,25.5328 70.8106636,25.0976 71.6059194,25.7168 C71.7895628,25.8608 71.9732062,26.0096 72.102555,26.2016 C73.3832682,28.0832 70.9559814,29.5584 69.424555,29.8512 C68.364214,30.0544 67.2527721,30.1568 66.0934233,30.1568 C65.1975628,30.1568 64.3528031,30.0848 63.562338,29.9392 C62.7718729,29.7936 61.9526636,29.4912 61.1047101,29.0272 C60.2535628,28.5648 59.5253767,27.9776 58.9169581,27.264 C58.3037488,26.552 57.8023225,25.5632 57.4094853,24.3024 C57.018245,23.0416 56.8202295,21.5856 56.8202295,19.9344" id="Fill-3" fill="#FFFFFF"></path>
                        <path d="M98.5034512,27.72016 L98.5034512,4.64176 C98.5034512,3.29456 99.5925364,2.20496 100.935529,2.20496 C102.278521,2.20496 103.367606,3.29456 103.367606,4.64176 L103.367606,27.72016 C103.367606,29.06576 102.278521,30.15536 100.935529,30.15536 C99.5925364,30.15536 98.5034512,29.06576 98.5034512,27.72016" id="Fill-5" fill="#FFFFFF"></path>
                        <path d="M122.403922,10.09824 C121.265333,9.68384 119.98462,10.34304 119.540682,11.56864 L117.999674,15.83104 L115.594744,22.47424 L111.42045,11.55744 C111.10586,10.57664 110.194031,9.91104 109.165628,9.91104 C107.508047,9.91104 106.361473,11.57504 106.950729,13.12864 L112.988605,29.06144 C112.215705,31.16544 111.396496,32.51904 110.540558,33.26624 C110.540558,33.26624 110.173271,33.55584 109.454667,33.55584 C108.913318,33.55584 108.201101,33.48064 107.797085,33.78624 C107.209426,34.22464 106.807008,34.89024 106.80062,35.67744 L106.80062,35.73024 C106.811798,36.86944 107.618233,37.77984 108.683364,38.03104 C109.079395,38.08704 109.473829,38.13984 109.863473,38.13984 C111.222434,38.13984 112.531891,37.62784 113.798233,36.60384 C114.168713,36.30624 114.528016,35.89824 114.882527,35.43584 C115.326465,34.85344 115.756031,34.10784 116.176016,33.26624 C116.50338,32.60864 116.82755,31.90464 117.138946,31.09024 C117.198031,30.93664 117.258713,30.81024 117.317798,30.65184 L118.997736,25.95104 L123.659085,13.06464 C123.694217,12.97024 123.684636,12.87584 123.705395,12.78144 C123.973674,11.64064 123.453085,10.47904 122.403922,10.09824" id="Fill-7" fill="#FFFFFF"></path>
                        <path d="M82.3191969,26.0936 C83.4370264,26.252 84.4350884,26.3304 85.3053984,26.3304 C86.8735535,26.3304 88.0712279,25.8712 88.8920341,24.9544 C89.717631,24.036 90.129631,22.4152 90.129631,20.0904 C90.129631,17.7144 89.8182357,15.996 89.2002357,14.94 C88.5790419,13.8824 87.499538,13.3544 85.9569333,13.3544 C83.5312434,13.3544 82.3191969,14.0808 82.3191969,15.5336 L82.3191969,26.0936 Z M79.8887163,37.2056 C78.5441271,37.2056 77.4550419,36.116 77.4550419,34.7704 L77.4550419,15.9912 C77.4550419,14.1272 78.1512899,12.5272 79.5405922,11.1864 C80.9330884,9.8456 83.0713364,9.1752 85.9569333,9.1752 C86.6260341,9.1752 87.2903442,9.228 87.9530574,9.3336 C88.6173674,9.4408 89.3982512,9.7176 90.2957085,10.1656 C91.1979566,10.6136 91.967662,11.1944 92.6080186,11.9096 C93.2531659,12.6216 93.8120806,13.668 94.2831659,15.0488 C94.7558481,16.428 94.993786,18.0232 94.993786,19.8328 C94.993786,23.1464 94.185755,25.692 92.569693,27.4696 C90.9568248,29.2456 88.6461116,30.1336 85.6407473,30.1336 C84.5053519,30.1336 83.3987008,30.0136 82.3191969,29.7736 L82.3191969,34.7704 C82.3191969,36.116 81.2301116,37.2056 79.8887163,37.2056 Z" id="Fill-9" fill="#FFFFFF"></path>
                        <g id="Elements-/-fiamma-/-azzurra" fill="#10BCCD">
                            <path d="M21.2207147,29.54256 C20.9045287,29.75376 20.5787612,29.95216 20.2434124,30.13456 C20.0310248,30.23376 19.8154434,30.32656 19.5966682,30.41616 C18.4788388,28.62256 16.4922961,27.42736 14.2246992,27.42736 C11.9571023,27.42736 9.97055969,28.62256 8.85113333,30.41616 C8.63235814,30.32656 8.41677674,30.23376 8.20598605,30.13296 C7.86265271,29.97296 7.52730388,29.79856 7.20153643,29.61296 C2.89948992,27.16176 -0.000479069768,22.52816 -0.000479069768,17.21776 C-0.000479069768,14.31216 0.868234109,11.61136 2.35654419,9.35856 L2.37091628,9.38416 C3.25400155,10.95856 4.78702481,12.11696 6.60589302,12.49616 C6.07731938,11.23536 5.78348992,9.84976 5.78348992,8.39696 C5.78348992,5.45456 6.98435814,2.79376 8.9229938,0.87696 L8.94055969,0.85936 C10.4544202,3.74256 13.3448078,5.37936 16.3342031,6.46256 C20.4318465,7.94576 23.8891333,9.84656 25.6233659,13.41776 L25.6169783,13.42896 C26.4298,15.10416 26.8865132,16.98256 26.8865132,18.96976 C26.8865132,23.38416 24.6348853,27.27056 21.2207147,29.54256" id="Path"></path>
                        </g>
                        <g id="Elements-/-slash-/-big" transform="translate(130.000000, 7.000000)" fill="#00BDCF">
                            <polygon id="Path" points="0.425786047 25.93424 11.5545767 0.00304 13.5522977 0.00304 2.39316589 25.93424"></polygon>
                        </g>
                        <polygon fill="#00BDCF" points="158.817536 17.85296 158.817536 9.17456 160.377707 9.17456 160.377707 12.77616 164.053769 12.77616 164.053769 9.17456 165.61394 9.17456 165.61394 17.85296 164.053769 17.85296 164.053769 14.24976 160.377707 14.24976 160.377707 17.85296"></polygon>
                        <path d="M171.394715,14.35296 L173.980095,14.35296 L172.692994,10.94816 L171.394715,14.35296 Z M168.394141,17.85376 L171.837056,9.17536 L173.550529,9.17536 L176.991847,17.85376 L175.318296,17.85376 L174.526234,15.75616 L170.86135,15.75616 L170.069288,17.85376 L168.394141,17.85376 Z" fill="#00BDCF"></path>
                        <path d="M181.320721,13.58272 L182.880891,13.58272 C183.564364,13.58272 184.030659,13.45792 184.281372,13.20512 C184.530488,12.95072 184.655047,12.57792 184.655047,12.08352 C184.655047,11.59552 184.530488,11.22592 184.278178,10.97792 C184.025868,10.72992 183.559574,10.60512 182.880891,10.60512 L181.320721,10.60512 L181.320721,13.58272 Z M179.758953,17.85312 L179.758953,9.17472 L183.000659,9.17472 C184.024271,9.17472 184.816333,9.42752 185.376845,9.93152 C185.93576,10.43552 186.21362,11.15232 186.21362,12.08352 C186.21362,13.01632 185.93576,13.73312 185.375248,14.23392 C184.814736,14.73792 184.022674,14.98752 182.999062,14.98752 L181.320721,14.98752 L181.320721,17.85312 L179.758953,17.85312 Z" id="Fill-20" fill="#00BDCF"></path>
                        <path d="M190.66354,13.58272 L192.22371,13.58272 C192.907183,13.58272 193.375074,13.45792 193.624191,13.20512 C193.874904,12.95072 193.999462,12.57792 193.999462,12.08352 C193.999462,11.59552 193.873307,11.22592 193.622594,10.97792 C193.370284,10.72992 192.903989,10.60512 192.22371,10.60512 L190.66354,10.60512 L190.66354,13.58272 Z M189.103369,17.85312 L189.103369,9.17472 L192.343478,9.17472 C193.368687,9.17472 194.159152,9.42752 194.719664,9.93152 C195.278578,10.43552 195.558036,11.15232 195.558036,12.08352 C195.558036,13.01632 195.278578,13.73312 194.719664,14.23392 C194.159152,14.73792 193.36709,14.98752 192.341881,14.98752 L190.66354,14.98752 L190.66354,17.85312 L189.103369,17.85312 Z" id="Fill-22" fill="#00BDCF"></path>
                        <polygon id="Fill-24" fill="#00BDCF" points="197.540905 9.17488 199.425247 9.17488 201.718394 12.70128 204.00196 9.17488 205.884704 9.17488 202.499278 14.13008 202.499278 17.85328 200.940704 17.85328 200.940704 14.13008"></polygon>
                        <path d="M150.449465,27.58432 C150.283388,27.04672 150.201946,26.42112 150.201946,25.71072 C150.201946,24.99872 150.283388,24.37312 150.449465,23.83552 C150.615543,23.29792 150.826333,22.87072 151.086628,22.55072 C151.346922,22.22912 151.661512,21.96992 152.027202,21.76832 C152.396085,21.56832 152.755388,21.43232 153.105109,21.36512 C153.456426,21.29632 153.834891,21.26432 154.240504,21.26432 C155.125186,21.26432 156.000287,21.43552 156.865806,21.77792 L156.865806,23.23872 C156.041806,22.85792 155.211419,22.66752 154.379434,22.66752 C153.991388,22.66752 153.659233,22.70272 153.381372,22.77152 C153.105109,22.84192 152.833636,22.97632 152.570147,23.17632 C152.305062,23.37472 152.10545,23.68512 151.968116,24.10912 C151.830783,24.53312 151.762116,25.06752 151.762116,25.71072 C151.762116,26.35232 151.830783,26.88672 151.968116,27.31072 C152.10545,27.73472 152.305062,28.04512 152.570147,28.24512 C152.833636,28.44352 153.105109,28.57792 153.381372,28.64832 C153.659233,28.71712 153.991388,28.75232 154.379434,28.75232 C155.211419,28.75232 156.041806,28.56192 156.865806,28.18112 L156.865806,29.63552 C156.000287,29.98272 155.125186,30.15552 154.240504,30.15552 C153.834891,30.15552 153.456426,30.12352 153.105109,30.05472 C152.755388,29.98752 152.396085,29.85312 152.027202,29.65152 C151.661512,29.45152 151.346922,29.18912 151.086628,28.87072 C150.826333,28.55072 150.615543,28.12192 150.449465,27.58432" id="Fill-26" fill="#00BDCF"></path>
                        <path d="M161.028922,25.70464 C161.028922,26.35424 161.094395,26.89344 161.222147,27.32064 C161.351496,27.74624 161.541527,28.06144 161.793837,28.26144 C162.04455,28.46304 162.303248,28.59904 162.566736,28.67104 C162.830225,28.74144 163.144814,28.77824 163.508907,28.77824 C163.802736,28.77824 164.05824,28.75904 164.273822,28.72064 C164.491,28.68224 164.712969,28.60224 164.939729,28.47584 C165.169682,28.35264 165.354922,28.17984 165.498643,27.95744 C165.642364,27.73664 165.762132,27.43424 165.856349,27.05504 C165.952163,26.67264 165.998473,26.22304 165.998473,25.70464 C165.998473,25.06144 165.934597,24.52704 165.805248,24.09984 C165.677496,23.67264 165.484271,23.35904 165.228767,23.15904 C164.973264,22.95744 164.716163,22.82304 164.455868,22.75584 C164.195574,22.68864 163.879388,22.65504 163.508907,22.65504 C163.219868,22.65504 162.969155,22.67264 162.753574,22.71264 C162.537992,22.74944 162.316023,22.83264 162.084473,22.95904 C161.854519,23.08544 161.667682,23.25824 161.527155,23.47264 C161.386628,23.68704 161.26686,23.98464 161.172643,24.36064 C161.075233,24.73664 161.028922,25.18464 161.028922,25.70464 M159.468752,25.71744 C159.468752,25.00544 159.551791,24.38304 159.717868,23.84544 C159.880752,23.30784 160.094736,22.88064 160.353434,22.56064 C160.613729,22.24224 160.928318,21.98144 161.295605,21.78144 C161.662891,21.57984 162.022194,21.44544 162.373512,21.37824 C162.724829,21.31104 163.103295,21.27584 163.508907,21.27584 C163.914519,21.27584 164.291388,21.31104 164.642705,21.37824 C164.994023,21.44544 165.353326,21.57984 165.720612,21.78144 C166.089496,21.98144 166.404085,22.24224 166.667574,22.56064 C166.932659,22.88064 167.146643,23.30784 167.312721,23.84544 C167.477202,24.38304 167.558643,25.00544 167.558643,25.71744 C167.558643,26.41984 167.477202,27.04384 167.312721,27.58624 C167.146643,28.13024 166.932659,28.55904 166.667574,28.87424 C166.404085,29.19104 166.089496,29.45024 165.720612,29.65024 C165.353326,29.85344 164.994023,29.98784 164.642705,30.05504 C164.291388,30.12384 163.914519,30.15584 163.508907,30.15584 C163.103295,30.15584 162.724829,30.12384 162.373512,30.05504 C162.022194,29.98784 161.662891,29.85344 161.295605,29.65024 C160.928318,29.45024 160.613729,29.19104 160.353434,28.87424 C160.094736,28.55904 159.880752,28.13024 159.717868,27.58624 C159.551791,27.04384 159.468752,26.41984 159.468752,25.71744" id="Fill-28" fill="#00BDCF"></path>
                        <path d="M172.268059,28.75296 L173.695687,28.75296 C174.594741,28.75296 175.241485,28.52416 175.637516,28.06656 C176.03195,27.61056 176.229966,26.86176 176.229966,25.82496 C176.229966,24.77856 176.03195,24.02656 175.637516,23.57056 C175.241485,23.11296 174.594741,22.88416 173.695687,22.88416 L172.268059,22.88416 L172.268059,28.75296 Z M170.707888,30.15616 L170.707888,21.47936 L173.697284,21.47936 C175.037082,21.47936 176.055904,21.84896 176.750555,22.58656 C177.442012,23.32096 177.790136,24.40096 177.790136,25.82496 C177.790136,27.23936 177.443609,28.31616 176.753749,29.05216 C176.060695,29.78816 175.041873,30.15616 173.697284,30.15616 L170.707888,30.15616 Z" id="Fill-30" fill="#00BDCF"></path>
                        <polygon id="Fill-32" fill="#00BDCF" points="180.88876 30.15616 180.88876 21.47936 186.650372 21.47936 186.650372 22.88416 182.44893 22.88416 182.44893 25.08096 186.094651 25.08096 186.094651 26.55456 182.44893 26.55456 182.44893 28.75296 186.650372 28.75296 186.650372 30.15616"></polygon>
                        <path d="M191.304535,25.66544 L193.029186,25.66544 C193.556163,25.66544 193.971357,25.57104 194.269977,25.38224 C194.571791,25.19344 194.721899,24.83504 194.721899,24.30864 C194.721899,23.77584 194.571791,23.41584 194.269977,23.23184 C193.971357,23.04624 193.556163,22.95504 193.029186,22.95504 L191.304535,22.95504 L191.304535,25.66544 Z M189.744364,30.15664 L189.744364,21.47984 L193.069109,21.47984 C194.084736,21.47984 194.873605,21.71984 195.43731,22.20304 C195.999419,22.68624 196.280473,23.37584 196.280473,24.27184 C196.280473,25.59344 195.648101,26.44784 194.380163,26.83504 L196.655744,30.15664 L194.773,30.15664 L192.705016,27.09584 L191.304535,27.09584 L191.304535,30.15664 L189.744364,30.15664 Z" id="Fill-34" fill="#00BDCF"></path>
                        <path d="M199.309312,23.81712 C199.309312,22.97712 199.604738,22.34352 200.192397,21.91792 C200.778459,21.49072 201.514629,21.27632 202.397715,21.27632 C203.175405,21.27632 203.949901,21.47792 204.724397,21.88112 L204.724397,23.41072 C204.056893,22.97072 203.341482,22.74992 202.581358,22.74992 C202.103885,22.74992 201.69987,22.83312 201.367715,22.99792 C201.03556,23.16272 200.871079,23.42352 200.871079,23.78032 C200.871079,24.06672 201.019591,24.29232 201.323002,24.45552 C201.624816,24.61872 201.992102,24.75632 202.420071,24.86832 C202.849637,24.98192 203.279203,25.12112 203.71356,25.29072 C204.146319,25.46032 204.513606,25.75312 204.81542,26.17072 C205.118831,26.58672 205.26894,27.12592 205.26894,27.78672 C205.26894,28.48432 204.979901,29.05232 204.400226,29.49552 C203.820552,29.93552 203.116319,30.15632 202.282738,30.15632 C201.184071,30.15632 200.230722,29.91472 199.424288,29.42992 L199.424288,27.85072 C200.166847,28.40592 201.000428,28.68272 201.921839,28.68272 C203.113126,28.68272 203.710366,28.34992 203.710366,27.68592 C203.710366,27.38512 203.601777,27.13552 203.387792,26.93552 C203.170614,26.73712 202.897544,26.58992 202.568583,26.49392 C202.238025,26.39952 201.88511,26.28752 201.509839,26.15792 C201.134567,26.02832 200.781653,25.88752 200.451095,25.73552 C200.122133,25.58352 199.849064,25.34512 199.631885,25.02192 C199.416304,24.69712 199.309312,24.29552 199.309312,23.81712" id="Fill-36" fill="#00BDCF"></path>
                    </g>
                </g>
            </g>
        </g>
    </g>
</svg>